<svg width="103" height="103" viewBox="0 0 103 103" fill="none" xmlns="http://www.w3.org/2000/svg">
<circle cx="27.6574" cy="26.7037" r="22.8889" fill="#FFC949"/>
<path d="M82.7138 19.6062C74.1178 11.2375 62.7415 6.4375 51.5 6.4375C40.2585 6.4375 28.8822 11.2375 20.2862 19.6062C11.3562 28.2988 6.4375 39.6309 6.4375 51.5C6.4375 56.8653 8.19775 63.7896 13.052 76.7571C17.9063 89.7247 27.5605 95.1543 31.6383 96.0415C32.8071 96.297 34.1771 96.5625 35.4062 96.5625C37.5243 96.5643 39.6055 96.0093 41.4414 94.9531L44.2578 93.3438C47.2895 91.5694 48.1746 87.6848 46.4305 84.6229L28.9446 53.9302C28.5279 53.1957 27.9697 52.5512 27.3022 52.0341C26.6347 51.5169 25.8713 51.1373 25.056 50.9172C24.2408 50.6972 23.39 50.6411 22.5529 50.7522C21.7159 50.8633 20.9092 51.1393 20.1796 51.5644L17.4255 53.1738C16.367 53.7938 15.4159 54.5812 14.6091 55.5053C14.509 55.6228 14.3771 55.7091 14.2293 55.7537C14.0815 55.7983 13.924 55.7995 13.7756 55.7571C13.6271 55.7147 13.494 55.6305 13.3921 55.5145C13.2902 55.3985 13.2238 55.2557 13.2009 55.103C12.9981 53.9124 12.8892 52.7077 12.875 51.5C12.875 41.379 17.0996 31.6886 24.7763 24.2191C32.1875 17.0091 41.9222 12.875 51.5 12.875C61.0778 12.875 70.8125 17.0091 78.2237 24.2191C85.9004 31.6886 90.125 41.379 90.125 51.5C90.1069 52.708 89.9939 53.9127 89.787 55.103C89.7641 55.2557 89.6977 55.3985 89.5958 55.5145C89.4939 55.6305 89.3608 55.7147 89.2123 55.7571C89.0639 55.7995 88.9064 55.7983 88.7586 55.7537C88.6108 55.7091 88.479 55.6228 88.3788 55.5053C87.572 54.5812 86.6209 53.7938 85.5624 53.1738L82.8084 51.5644C82.0788 51.1393 81.272 50.8633 80.435 50.7522C79.5979 50.6411 78.7471 50.6972 77.9319 50.9172C77.1167 51.1373 76.3532 51.5169 75.6857 52.0341C75.0182 52.5512 74.46 53.1957 74.0433 53.9302L56.5695 84.6229C54.8254 87.6848 55.7105 91.5694 58.7422 93.3438L61.5586 94.9531C63.3945 96.0093 65.4757 96.5643 67.5938 96.5625C68.8229 96.5625 70.1929 96.297 71.3617 96.0415C75.4395 95.1543 85.0957 89.7227 89.948 76.7571C94.8002 63.7916 96.5625 56.8653 96.5625 51.5C96.5625 39.6309 91.6438 28.2988 82.7138 19.6062Z" fill="#42526E"/>
</svg>
