<svg width="108" height="108" viewBox="0 0 108 108" fill="none" xmlns="http://www.w3.org/2000/svg">
<rect x="8" y="15" width="79" height="79" rx="10" fill="#42526E"/>
<circle cx="84" cy="50" r="19" fill="#334563"/>
<circle cx="27.5" cy="71.5" r="8.5" fill="#5776D0"/>
<line x1="23" y1="40" x2="35" y2="40" stroke="#F2F2F2" stroke-width="4" stroke-linecap="round"/>
<line x1="23" y1="30" x2="46" y2="30" stroke="#F2F2F2" stroke-width="4" stroke-linecap="round"/>
<path d="M34.7502 73.75H33.2502C32.8524 73.75 32.4709 73.592 32.1896 73.3107C31.9083 73.0294 31.7502 72.6478 31.7502 72.25L31.7526 68.2272C31.7526 68.1943 31.744 68.1619 31.7276 68.1333C31.7111 68.1048 31.6875 68.0811 31.659 68.0646C31.6305 68.0481 31.5981 68.0394 31.5652 68.0394C31.5322 68.0394 31.4999 68.0481 31.4713 68.0645L27.9867 70.083C27.6478 70.2786 27.245 70.3316 26.867 70.2304C26.489 70.1291 26.1667 69.8818 25.971 69.543L25.1976 68.2005L25.1948 68.1958C25.0044 67.857 24.9544 67.4571 25.0558 67.0819C25.1571 66.7068 25.4016 66.3863 25.7367 66.1895L29.234 64.1622C29.2624 64.1457 29.286 64.122 29.3024 64.0936C29.3188 64.0651 29.3274 64.0328 29.3274 64C29.3274 63.9672 29.3188 63.9349 29.3024 63.9064C29.286 63.878 29.2624 63.8543 29.234 63.8378L25.7399 61.8123C25.5717 61.7159 25.4242 61.5871 25.3059 61.4335C25.1875 61.2798 25.1007 61.1043 25.0504 60.917C25.0001 60.7297 24.9873 60.5344 25.0127 60.3421C25.0381 60.1498 25.1013 59.9645 25.1985 59.7967L25.9692 58.4584C26.0665 58.2892 26.1965 58.1411 26.3516 58.0225C26.5066 57.9039 26.6837 57.8172 26.8724 57.7675C27.0591 57.7174 27.2538 57.7049 27.4453 57.7306C27.6368 57.7564 27.8213 57.8199 27.9881 57.9175L31.4713 59.9331C31.4999 59.9496 31.5322 59.9583 31.5652 59.9582C31.5981 59.9582 31.6305 59.9495 31.659 59.9331C31.6875 59.9166 31.7111 59.8929 31.7276 59.8643C31.744 59.8358 31.7526 59.8034 31.7526 59.7705L31.7502 55.75C31.7502 55.3522 31.9083 54.9706 32.1896 54.6893C32.4709 54.408 32.8524 54.25 33.2502 54.25H34.7502C35.1481 54.25 35.5296 54.408 35.8109 54.6893C36.0922 54.9706 36.2502 55.3522 36.2502 55.75V59.7681C36.2502 59.8011 36.2588 59.8334 36.2753 59.862C36.2917 59.8905 36.3154 59.9142 36.3439 59.9307C36.3724 59.9472 36.4047 59.9559 36.4377 59.9559C36.4706 59.9559 36.503 59.9472 36.5315 59.9308L40.0162 57.9123C40.3552 57.7171 40.7578 57.6643 41.1357 57.7655C41.5136 57.8667 41.8358 58.1138 42.0318 58.4523L42.8048 59.7948L42.8076 59.7991C43.0002 60.1382 43.0509 60.5397 42.9487 60.916C42.8465 61.2924 42.5997 61.613 42.262 61.8081L38.7684 63.8331C38.74 63.8496 38.7164 63.8733 38.7 63.9017C38.6836 63.9302 38.675 63.9625 38.675 63.9953C38.675 64.0282 38.6836 64.0604 38.7 64.0889C38.7164 64.1174 38.74 64.141 38.7684 64.1575L42.262 66.1825C42.4302 66.279 42.5777 66.4077 42.6961 66.5614C42.8144 66.715 42.9012 66.8905 42.9516 67.0778C43.0019 67.265 43.0148 67.4604 42.9894 67.6527C42.9641 67.8449 42.901 68.0303 42.8038 68.1981L42.0332 69.5364C41.9358 69.7056 41.8059 69.8538 41.6508 69.9724C41.4958 70.091 41.3187 70.1776 41.1299 70.2273C40.9433 70.2774 40.7486 70.29 40.5571 70.2642C40.3656 70.2385 40.1811 70.1749 40.0143 70.0773L36.531 68.0617C36.5025 68.0453 36.4702 68.0366 36.4373 68.0366C36.4044 68.0366 36.3721 68.0452 36.3436 68.0617C36.3151 68.0781 36.2914 68.1017 36.275 68.1302C36.2585 68.1587 36.2498 68.191 36.2498 68.2239L36.2502 72.25C36.2502 72.6478 36.0922 73.0294 35.8109 73.3107C35.5296 73.592 35.1481 73.75 34.7502 73.75Z" fill="#FFC949"/>
<path d="M82.2717 25.5C71.3049 25.3519 62.3517 34.305 62.4999 45.2719C62.6461 55.7897 71.2102 64.3538 81.728 64.5C92.6967 64.65 101.648 55.6969 101.498 44.73C101.354 34.2103 92.7895 25.6463 82.2717 25.5ZM80.6977 43.5441L85.5305 38.0128C85.7923 37.7132 86.1624 37.5299 86.5594 37.5032C86.9564 37.4764 87.3477 37.6085 87.6474 37.8703C87.947 38.1321 88.1303 38.5023 88.157 38.8993C88.1838 39.2962 88.0517 39.6876 87.7899 39.9872L82.957 45.5184C82.8274 45.6668 82.6698 45.7882 82.4933 45.8756C82.3167 45.9631 82.1247 46.0149 81.9281 46.0281C81.7316 46.0413 81.5343 46.0157 81.3476 45.9527C81.161 45.8897 80.9885 45.7906 80.8402 45.6609C80.6918 45.5313 80.5705 45.3737 80.483 45.1972C80.3956 45.0206 80.3437 44.8286 80.3305 44.632C80.3173 44.4355 80.3429 44.2382 80.4059 44.0515C80.4689 43.8649 80.568 43.6924 80.6977 43.5441ZM77.0545 52.0613C76.7733 52.3424 76.3919 52.5003 75.9942 52.5003C75.5966 52.5003 75.2152 52.3424 74.9339 52.0613L70.4386 47.5613C70.2994 47.4219 70.1889 47.2565 70.1136 47.0744C70.0383 46.8924 69.9996 46.6973 69.9997 46.5003C69.9998 46.3033 70.0387 46.1082 70.1141 45.9262C70.1896 45.7443 70.3002 45.5789 70.4395 45.4397C70.5789 45.3005 70.7443 45.19 70.9264 45.1147C71.1084 45.0394 71.3035 45.0007 71.5005 45.0008C71.6975 45.0009 71.8926 45.0398 72.0746 45.1152C72.2565 45.1907 72.4219 45.3013 72.5611 45.4406L77.0611 49.9406C77.3413 50.2228 77.4981 50.6047 77.4968 51.0023C77.4956 51.4 77.3365 51.7809 77.0545 52.0613ZM93.6295 39.9872L83.1408 51.9872C83.0057 52.142 82.8401 52.2675 82.6545 52.3557C82.4689 52.4439 82.2671 52.493 82.0617 52.5H82.0111C81.814 52.5 81.6188 52.4612 81.4367 52.3858C81.2546 52.3103 81.0892 52.1997 80.9499 52.0603L76.4555 47.5603C76.1743 47.2789 76.0164 46.8972 76.0166 46.4993C76.0167 46.1015 76.175 45.72 76.4564 45.4388C76.7379 45.1575 77.1195 44.9997 77.5174 44.9998C77.9153 45 78.2968 45.1582 78.578 45.4397L81.3717 48.2363C81.4444 48.3089 81.5311 48.3659 81.6267 48.4036C81.7222 48.4413 81.8245 48.459 81.9272 48.4556C82.0298 48.4522 82.1307 48.4277 82.2235 48.3837C82.3163 48.3396 82.3991 48.277 82.4667 48.1997L91.373 38.0128C91.6348 37.7132 92.0049 37.5299 92.4019 37.5032C92.7989 37.4764 93.1902 37.6085 93.4899 37.8703C93.7895 38.1321 93.9728 38.5023 93.9995 38.8993C94.0263 39.2962 93.8942 39.6876 93.6324 39.9872H93.6295Z" fill="#2B95B5"/>
</svg>
